# xmcd
#
# Track frame offsets:
#   150
#   19637
#   52332
#   77377
#   97457
#   119337
#   147408
#   163793
#   180857
#   203593
#   223276
#
# Disc length: 3202 seconds
#
# Revision: 0
# Processed by: cddbd v1.5.2PL0 Copyright (c) Steve Scherf et al.
# Submitted via: GXTranscoder 2.0.1939
#
DISCID=9d0c800b
DTITLE=Oliver JOhnson - Luv'n Thing
DYEAR=2007
DGENRE=Blues
TTITLE0=Luv 'n' Thing
TTITLE1=Hello Time
TTITLE2=Come Back Baby
TTITLE3=Do You Love Me Not
TTITLE4=I Don't Do Nothing
TTITLE5=Scheming Me
TTITLE6=Lied For The Last Time
TTITLE7=Drink Too Much
TTITLE8=If You Repay Evil For good
TTITLE9=Take Me Baby
TTITLE10=Drink Too Much, Pt. 2
EXTD=
EXTT0=
EXTT1=
EXTT2=
EXTT3=
EXTT4=
EXTT5=
EXTT6=
EXTT7=
EXTT8=
EXTT9=
EXTT10=
PLAYORDER=
